<mxfile host="app.diagrams.net" agent="Mozilla/5.0 (Windows NT 10.0; Win64; x64; rv:131.0) Gecko/20100101 Firefox/131.0" version="24.8.0">
  <diagram name="Page-1" id="cfJ9TCTzsL7CnSbTIvCM">
    <mxGraphModel dx="1687" dy="878" grid="1" gridSize="10" guides="1" tooltips="1" connect="1" arrows="1" fold="1" page="1" pageScale="1" pageWidth="1100" pageHeight="1700" math="0" shadow="0">
      <root>
        <mxCell id="0" />
        <mxCell id="1" parent="0" />
        <mxCell id="I3dHPkmmifoUdXKz8kKe-4" value="" style="rounded=1;whiteSpace=wrap;html=1;fillStyle=dashed;fillColor=#76608a;fontColor=#ffffff;strokeColor=#432D57;" vertex="1" parent="1">
          <mxGeometry x="10" y="90" width="410" height="700" as="geometry" />
        </mxCell>
        <mxCell id="I3dHPkmmifoUdXKz8kKe-5" value="&lt;div&gt;&lt;font style=&quot;font-size: 18px;&quot;&gt;Serviciu&lt;/font&gt;&lt;/div&gt;&lt;div&gt;&lt;font size=&quot;3&quot;&gt;Auth&lt;/font&gt;&lt;br&gt;&lt;/div&gt;" style="rounded=0;whiteSpace=wrap;html=1;fillColor=#e1d5e7;strokeColor=#9673a6;" vertex="1" parent="1">
          <mxGeometry x="10" y="90" width="120" height="60" as="geometry" />
        </mxCell>
        <mxCell id="I3dHPkmmifoUdXKz8kKe-1" value="" style="rounded=1;whiteSpace=wrap;html=1;fillStyle=dashed;fillColor=#d80073;fontColor=#ffffff;strokeColor=#A50040;" vertex="1" parent="1">
          <mxGeometry x="800" y="75" width="550" height="495" as="geometry" />
        </mxCell>
        <mxCell id="RCtLwJZYAIpIAuOQ2RNq-1" value="" style="rounded=0;whiteSpace=wrap;html=1;" parent="1" vertex="1">
          <mxGeometry x="150" y="120" width="180" height="110" as="geometry" />
        </mxCell>
        <mxCell id="RCtLwJZYAIpIAuOQ2RNq-2" value="&lt;font style=&quot;font-size: 18px;&quot;&gt;Login Page&lt;/font&gt;" style="text;html=1;align=center;verticalAlign=middle;whiteSpace=wrap;rounded=0;" parent="1" vertex="1">
          <mxGeometry x="190" y="90" width="100" height="30" as="geometry" />
        </mxCell>
        <mxCell id="RCtLwJZYAIpIAuOQ2RNq-3" value="email" style="rounded=0;whiteSpace=wrap;html=1;" parent="1" vertex="1">
          <mxGeometry x="180" y="130" width="100" height="20" as="geometry" />
        </mxCell>
        <mxCell id="RCtLwJZYAIpIAuOQ2RNq-4" value="&lt;div&gt;password&lt;/div&gt;" style="rounded=0;whiteSpace=wrap;html=1;" parent="1" vertex="1">
          <mxGeometry x="180" y="160" width="100" height="20" as="geometry" />
        </mxCell>
        <mxCell id="RCtLwJZYAIpIAuOQ2RNq-8" style="edgeStyle=orthogonalEdgeStyle;rounded=0;orthogonalLoop=1;jettySize=auto;html=1;entryX=0.5;entryY=0;entryDx=0;entryDy=0;" parent="1" source="RCtLwJZYAIpIAuOQ2RNq-5" target="RCtLwJZYAIpIAuOQ2RNq-6" edge="1">
          <mxGeometry relative="1" as="geometry">
            <Array as="points">
              <mxPoint x="350" y="200" />
              <mxPoint x="350" y="60" />
              <mxPoint x="565" y="60" />
            </Array>
          </mxGeometry>
        </mxCell>
        <mxCell id="RCtLwJZYAIpIAuOQ2RNq-5" value="submit" style="rounded=1;whiteSpace=wrap;html=1;" parent="1" vertex="1">
          <mxGeometry x="200" y="190" width="60" height="20" as="geometry" />
        </mxCell>
        <mxCell id="RCtLwJZYAIpIAuOQ2RNq-6" value="" style="rounded=0;whiteSpace=wrap;html=1;" parent="1" vertex="1">
          <mxGeometry x="440" y="120" width="250" height="120" as="geometry" />
        </mxCell>
        <mxCell id="RCtLwJZYAIpIAuOQ2RNq-7" value="&lt;font style=&quot;font-size: 18px;&quot;&gt;admin home Page&lt;/font&gt;" style="text;html=1;align=center;verticalAlign=middle;whiteSpace=wrap;rounded=0;" parent="1" vertex="1">
          <mxGeometry x="570" y="80" width="100" height="30" as="geometry" />
        </mxCell>
        <mxCell id="RCtLwJZYAIpIAuOQ2RNq-22" style="edgeStyle=orthogonalEdgeStyle;rounded=0;orthogonalLoop=1;jettySize=auto;html=1;entryX=0.5;entryY=0;entryDx=0;entryDy=0;" parent="1" source="RCtLwJZYAIpIAuOQ2RNq-9" target="RCtLwJZYAIpIAuOQ2RNq-11" edge="1">
          <mxGeometry relative="1" as="geometry">
            <Array as="points">
              <mxPoint x="730" y="155" />
              <mxPoint x="730" y="50" />
              <mxPoint x="970" y="50" />
            </Array>
          </mxGeometry>
        </mxCell>
        <mxCell id="RCtLwJZYAIpIAuOQ2RNq-9" value="Camine" style="rounded=1;whiteSpace=wrap;html=1;" parent="1" vertex="1">
          <mxGeometry x="460" y="140" width="100" height="30" as="geometry" />
        </mxCell>
        <mxCell id="RCtLwJZYAIpIAuOQ2RNq-45" style="edgeStyle=orthogonalEdgeStyle;rounded=0;orthogonalLoop=1;jettySize=auto;html=1;entryX=0.5;entryY=0;entryDx=0;entryDy=0;exitX=0.398;exitY=1.008;exitDx=0;exitDy=0;exitPerimeter=0;" parent="1" source="RCtLwJZYAIpIAuOQ2RNq-10" target="RCtLwJZYAIpIAuOQ2RNq-43" edge="1">
          <mxGeometry relative="1" as="geometry">
            <mxPoint x="550.0588235294117" y="210" as="sourcePoint" />
            <Array as="points">
              <mxPoint x="500" y="290" />
              <mxPoint x="235" y="290" />
            </Array>
          </mxGeometry>
        </mxCell>
        <mxCell id="RCtLwJZYAIpIAuOQ2RNq-10" value="Comisie" style="rounded=1;whiteSpace=wrap;html=1;" parent="1" vertex="1">
          <mxGeometry x="460" y="180" width="100" height="30" as="geometry" />
        </mxCell>
        <mxCell id="RCtLwJZYAIpIAuOQ2RNq-11" value="" style="rounded=0;whiteSpace=wrap;html=1;" parent="1" vertex="1">
          <mxGeometry x="830" y="120" width="280" height="120" as="geometry" />
        </mxCell>
        <mxCell id="RCtLwJZYAIpIAuOQ2RNq-13" value="T3&lt;span style=&quot;white-space: pre;&quot;&gt;&#x9;&lt;/span&gt;" style="rounded=1;whiteSpace=wrap;html=1;" parent="1" vertex="1">
          <mxGeometry x="840" y="165" width="50" height="20" as="geometry" />
        </mxCell>
        <mxCell id="RCtLwJZYAIpIAuOQ2RNq-14" value="T4" style="rounded=1;whiteSpace=wrap;html=1;" parent="1" vertex="1">
          <mxGeometry x="910" y="165" width="50" height="20" as="geometry" />
        </mxCell>
        <mxCell id="RCtLwJZYAIpIAuOQ2RNq-15" value="T2" style="rounded=1;whiteSpace=wrap;html=1;" parent="1" vertex="1">
          <mxGeometry x="910" y="130" width="50" height="20" as="geometry" />
        </mxCell>
        <mxCell id="RCtLwJZYAIpIAuOQ2RNq-17" value="" style="rounded=1;whiteSpace=wrap;html=1;shadow=0;strokeColor=#D608FF;fillColor=#FF00F7;" parent="1" vertex="1">
          <mxGeometry x="830" y="125" width="70" height="30" as="geometry" />
        </mxCell>
        <mxCell id="RCtLwJZYAIpIAuOQ2RNq-12" value="T1" style="rounded=1;whiteSpace=wrap;html=1;" parent="1" vertex="1">
          <mxGeometry x="840" y="130" width="50" height="20" as="geometry" />
        </mxCell>
        <mxCell id="RCtLwJZYAIpIAuOQ2RNq-39" style="edgeStyle=orthogonalEdgeStyle;rounded=0;orthogonalLoop=1;jettySize=auto;html=1;" parent="1" source="RCtLwJZYAIpIAuOQ2RNq-41" target="RCtLwJZYAIpIAuOQ2RNq-23" edge="1">
          <mxGeometry relative="1" as="geometry">
            <Array as="points">
              <mxPoint x="1200" y="300" />
              <mxPoint x="985" y="300" />
            </Array>
          </mxGeometry>
        </mxCell>
        <mxCell id="RCtLwJZYAIpIAuOQ2RNq-18" value="EDIT" style="rounded=1;whiteSpace=wrap;html=1;" parent="1" vertex="1">
          <mxGeometry x="1010" y="130" width="70" height="20" as="geometry" />
        </mxCell>
        <mxCell id="RCtLwJZYAIpIAuOQ2RNq-19" value="DELETE" style="rounded=1;whiteSpace=wrap;html=1;" parent="1" vertex="1">
          <mxGeometry x="1010" y="165" width="70" height="20" as="geometry" />
        </mxCell>
        <mxCell id="RCtLwJZYAIpIAuOQ2RNq-20" value="ADD CAMIN" style="rounded=1;whiteSpace=wrap;html=1;" parent="1" vertex="1">
          <mxGeometry x="1000" y="190" width="100" height="40" as="geometry" />
        </mxCell>
        <mxCell id="RCtLwJZYAIpIAuOQ2RNq-21" value="&lt;font style=&quot;font-size: 18px;&quot;&gt;Camine&lt;/font&gt;" style="text;html=1;align=center;verticalAlign=middle;whiteSpace=wrap;rounded=0;" parent="1" vertex="1">
          <mxGeometry x="900" y="90" width="60" height="30" as="geometry" />
        </mxCell>
        <mxCell id="RCtLwJZYAIpIAuOQ2RNq-23" value="" style="rounded=0;whiteSpace=wrap;html=1;" parent="1" vertex="1">
          <mxGeometry x="820" y="340" width="330" height="180" as="geometry" />
        </mxCell>
        <mxCell id="RCtLwJZYAIpIAuOQ2RNq-24" value="nume" style="rounded=0;whiteSpace=wrap;html=1;" parent="1" vertex="1">
          <mxGeometry x="830" y="350" width="80" height="20" as="geometry" />
        </mxCell>
        <mxCell id="RCtLwJZYAIpIAuOQ2RNq-25" value="locatie" style="rounded=0;whiteSpace=wrap;html=1;" parent="1" vertex="1">
          <mxGeometry x="830" y="370" width="80" height="20" as="geometry" />
        </mxCell>
        <mxCell id="RCtLwJZYAIpIAuOQ2RNq-26" value="scurta descriere" style="rounded=0;whiteSpace=wrap;html=1;" parent="1" vertex="1">
          <mxGeometry x="940" y="350" width="90" height="30" as="geometry" />
        </mxCell>
        <mxCell id="RCtLwJZYAIpIAuOQ2RNq-27" value="upload poze / oglinda" style="rounded=0;whiteSpace=wrap;html=1;" parent="1" vertex="1">
          <mxGeometry x="940" y="390" width="70" height="30" as="geometry" />
        </mxCell>
        <mxCell id="RCtLwJZYAIpIAuOQ2RNq-28" value="nr camera" style="rounded=0;whiteSpace=wrap;html=1;" parent="1" vertex="1">
          <mxGeometry x="830" y="390" width="80" height="20" as="geometry" />
        </mxCell>
        <mxCell id="RCtLwJZYAIpIAuOQ2RNq-29" value="nr camere / etaj" style="rounded=0;whiteSpace=wrap;html=1;" parent="1" vertex="1">
          <mxGeometry x="830" y="430" width="80" height="30" as="geometry" />
        </mxCell>
        <mxCell id="RCtLwJZYAIpIAuOQ2RNq-31" value="nr etaje" style="rounded=0;whiteSpace=wrap;html=1;" parent="1" vertex="1">
          <mxGeometry x="830" y="410" width="80" height="20" as="geometry" />
        </mxCell>
        <mxCell id="RCtLwJZYAIpIAuOQ2RNq-33" value="infromatii baie" style="rounded=0;whiteSpace=wrap;html=1;" parent="1" vertex="1">
          <mxGeometry x="830" y="460" width="80" height="20" as="geometry" />
        </mxCell>
        <mxCell id="RCtLwJZYAIpIAuOQ2RNq-34" value="infromatii bucatarie" style="rounded=0;whiteSpace=wrap;html=1;" parent="1" vertex="1">
          <mxGeometry x="830" y="480" width="80" height="30" as="geometry" />
        </mxCell>
        <mxCell id="RCtLwJZYAIpIAuOQ2RNq-36" value="Descriere mai mare" style="rounded=0;whiteSpace=wrap;html=1;" parent="1" vertex="1">
          <mxGeometry x="925" y="430" width="135" height="70" as="geometry" />
        </mxCell>
        <mxCell id="RCtLwJZYAIpIAuOQ2RNq-37" value="SAVE" style="rounded=1;whiteSpace=wrap;html=1;" parent="1" vertex="1">
          <mxGeometry x="1050" y="360" width="80" height="30" as="geometry" />
        </mxCell>
        <mxCell id="RCtLwJZYAIpIAuOQ2RNq-38" style="edgeStyle=orthogonalEdgeStyle;rounded=0;orthogonalLoop=1;jettySize=auto;html=1;entryX=0.479;entryY=0.017;entryDx=0;entryDy=0;entryPerimeter=0;" parent="1" source="RCtLwJZYAIpIAuOQ2RNq-20" target="RCtLwJZYAIpIAuOQ2RNq-23" edge="1">
          <mxGeometry relative="1" as="geometry" />
        </mxCell>
        <mxCell id="RCtLwJZYAIpIAuOQ2RNq-40" value="" style="edgeStyle=orthogonalEdgeStyle;rounded=0;orthogonalLoop=1;jettySize=auto;html=1;" parent="1" source="RCtLwJZYAIpIAuOQ2RNq-18" target="RCtLwJZYAIpIAuOQ2RNq-41" edge="1">
          <mxGeometry relative="1" as="geometry">
            <mxPoint x="1080" y="140" as="sourcePoint" />
            <mxPoint x="985" y="340" as="targetPoint" />
            <Array as="points">
              <mxPoint x="1200" y="140" />
            </Array>
          </mxGeometry>
        </mxCell>
        <mxCell id="RCtLwJZYAIpIAuOQ2RNq-41" value="Informatiile vechi" style="text;html=1;align=center;verticalAlign=middle;whiteSpace=wrap;rounded=0;" parent="1" vertex="1">
          <mxGeometry x="1180" y="225" width="60" height="30" as="geometry" />
        </mxCell>
        <mxCell id="RCtLwJZYAIpIAuOQ2RNq-42" style="edgeStyle=orthogonalEdgeStyle;rounded=0;orthogonalLoop=1;jettySize=auto;html=1;entryX=0.557;entryY=0;entryDx=0;entryDy=0;entryPerimeter=0;" parent="1" source="RCtLwJZYAIpIAuOQ2RNq-37" target="RCtLwJZYAIpIAuOQ2RNq-11" edge="1">
          <mxGeometry relative="1" as="geometry">
            <Array as="points">
              <mxPoint x="1310" y="375" />
              <mxPoint x="1310" y="100" />
              <mxPoint x="986" y="100" />
            </Array>
          </mxGeometry>
        </mxCell>
        <mxCell id="RCtLwJZYAIpIAuOQ2RNq-43" value="" style="rounded=0;whiteSpace=wrap;html=1;" parent="1" vertex="1">
          <mxGeometry x="80" y="390" width="310" height="180" as="geometry" />
        </mxCell>
        <mxCell id="RCtLwJZYAIpIAuOQ2RNq-44" value="&lt;font style=&quot;font-size: 18px;&quot;&gt;Membri&lt;/font&gt;" style="text;html=1;align=center;verticalAlign=middle;whiteSpace=wrap;rounded=0;" parent="1" vertex="1">
          <mxGeometry x="160" y="360" width="60" height="30" as="geometry" />
        </mxCell>
        <mxCell id="RCtLwJZYAIpIAuOQ2RNq-47" value="Nume memebru 1" style="rounded=0;whiteSpace=wrap;html=1;" parent="1" vertex="1">
          <mxGeometry x="90" y="430" width="140" height="20" as="geometry" />
        </mxCell>
        <mxCell id="RCtLwJZYAIpIAuOQ2RNq-48" value="Nume memebru 1" style="rounded=0;whiteSpace=wrap;html=1;" parent="1" vertex="1">
          <mxGeometry x="90" y="460" width="140" height="20" as="geometry" />
        </mxCell>
        <mxCell id="RCtLwJZYAIpIAuOQ2RNq-49" value="Nume memebru 1" style="rounded=0;whiteSpace=wrap;html=1;" parent="1" vertex="1">
          <mxGeometry x="90" y="490" width="140" height="20" as="geometry" />
        </mxCell>
        <mxCell id="RCtLwJZYAIpIAuOQ2RNq-50" value="Nume memebru 1" style="rounded=0;whiteSpace=wrap;html=1;" parent="1" vertex="1">
          <mxGeometry x="90" y="520" width="140" height="20" as="geometry" />
        </mxCell>
        <mxCell id="RCtLwJZYAIpIAuOQ2RNq-51" value="" style="rounded=0;whiteSpace=wrap;html=1;strokeColor=#C300FF;fillColor=#E047FF;" parent="1" vertex="1">
          <mxGeometry x="85" y="397.5" width="150" height="25" as="geometry" />
        </mxCell>
        <mxCell id="RCtLwJZYAIpIAuOQ2RNq-46" value="Nume memebru 1" style="rounded=0;whiteSpace=wrap;html=1;" parent="1" vertex="1">
          <mxGeometry x="90" y="400" width="140" height="20" as="geometry" />
        </mxCell>
        <mxCell id="RCtLwJZYAIpIAuOQ2RNq-52" value="DELETE" style="rounded=1;whiteSpace=wrap;html=1;" parent="1" vertex="1">
          <mxGeometry x="270" y="400" width="80" height="30" as="geometry" />
        </mxCell>
        <mxCell id="RCtLwJZYAIpIAuOQ2RNq-53" value="ADD MEMBRU" style="rounded=1;whiteSpace=wrap;html=1;" parent="1" vertex="1">
          <mxGeometry x="260" y="455" width="100" height="35" as="geometry" />
        </mxCell>
        <mxCell id="RCtLwJZYAIpIAuOQ2RNq-54" value="" style="rounded=0;whiteSpace=wrap;html=1;" parent="1" vertex="1">
          <mxGeometry x="100" y="640" width="230" height="120" as="geometry" />
        </mxCell>
        <mxCell id="RCtLwJZYAIpIAuOQ2RNq-55" value="email" style="rounded=0;whiteSpace=wrap;html=1;" parent="1" vertex="1">
          <mxGeometry x="160" y="660" width="110" height="30" as="geometry" />
        </mxCell>
        <mxCell id="RCtLwJZYAIpIAuOQ2RNq-56" value="ADD" style="rounded=1;whiteSpace=wrap;html=1;" parent="1" vertex="1">
          <mxGeometry x="175" y="710" width="75" height="30" as="geometry" />
        </mxCell>
        <mxCell id="RCtLwJZYAIpIAuOQ2RNq-57" style="edgeStyle=orthogonalEdgeStyle;rounded=0;orthogonalLoop=1;jettySize=auto;html=1;entryX=0.555;entryY=0;entryDx=0;entryDy=0;entryPerimeter=0;" parent="1" source="RCtLwJZYAIpIAuOQ2RNq-56" target="RCtLwJZYAIpIAuOQ2RNq-43" edge="1">
          <mxGeometry relative="1" as="geometry">
            <Array as="points">
              <mxPoint x="520" y="720" />
              <mxPoint x="520" y="350" />
              <mxPoint x="252" y="350" />
            </Array>
          </mxGeometry>
        </mxCell>
        <mxCell id="RCtLwJZYAIpIAuOQ2RNq-58" style="edgeStyle=orthogonalEdgeStyle;rounded=0;orthogonalLoop=1;jettySize=auto;html=1;entryX=0.539;entryY=0.033;entryDx=0;entryDy=0;entryPerimeter=0;" parent="1" source="RCtLwJZYAIpIAuOQ2RNq-53" target="RCtLwJZYAIpIAuOQ2RNq-54" edge="1">
          <mxGeometry relative="1" as="geometry">
            <Array as="points">
              <mxPoint x="310" y="600" />
              <mxPoint x="224" y="600" />
            </Array>
          </mxGeometry>
        </mxCell>
        <mxCell id="I3dHPkmmifoUdXKz8kKe-2" value="&lt;div&gt;&lt;font style=&quot;font-size: 18px;&quot;&gt;Serviciu&lt;/font&gt;&lt;/div&gt;&lt;div&gt;&lt;font size=&quot;3&quot;&gt;Camine&lt;/font&gt;&lt;br&gt;&lt;/div&gt;" style="rounded=0;whiteSpace=wrap;html=1;fillColor=#f8cecc;strokeColor=#b85450;" vertex="1" parent="1">
          <mxGeometry x="1230" y="510" width="120" height="60" as="geometry" />
        </mxCell>
      </root>
    </mxGraphModel>
  </diagram>
</mxfile>
